HIERARCHY
ROOT Hips
{
	OFFSET 0.000000 0.000000 0.000000
	CHANNELS 6 Xposition Yposition Zposition Xrotation Yrotation Zrotation
	JOINT LeftUpLeg_virtual
	{
		OFFSET 0.000000 0.000000 0.000000
		CHANNELS 3 Xrotation Yrotation Zrotation
		JOINT LeftUpLeg
		{
			OFFSET 13.026900 -6.336304 -1.092800
			CHANNELS 3 Xrotation Yrotation Zrotation
			JOINT LeftLeg
			{
				OFFSET 0.524474 -46.096886 9.782700
				CHANNELS 3 Xrotation Yrotation Zrotation
				JOINT LeftFoot
				{
					OFFSET -0.524474 -53.427422 -12.948200
					CHANNELS 3 Xrotation Yrotation Zrotation
					JOINT LeftToeBase
					{
						OFFSET 0.192200 -14.009700 16.364100
						CHANNELS 3 Xrotation Yrotation Zrotation
						JOINT LeftToe_End
						{
							OFFSET -1.784700 -0.561700 9.474800
							CHANNELS 3 Xrotation Yrotation Zrotation
							End Site
							{
								OFFSET 0 0 0
							}
						}
					}
				}
			}
		}
	}
	JOINT RightUpLeg_virtual
	{
		OFFSET 0.000000 0.000000 0.000000
		CHANNELS 3 Xrotation Yrotation Zrotation
		JOINT RightUpLeg
		{
			OFFSET -12.883000 -6.336304 -1.092800
			CHANNELS 3 Xrotation Yrotation Zrotation
			JOINT RightLeg
			{
				OFFSET -0.524587 -46.096825 9.782800
				CHANNELS 3 Xrotation Yrotation Zrotation
				JOINT RightFoot
				{
					OFFSET 0.524587 -53.427383 -12.948300
					CHANNELS 3 Xrotation Yrotation Zrotation
					JOINT RightToeBase
					{
						OFFSET -0.192200 -14.009700 16.364100
						CHANNELS 3 Xrotation Yrotation Zrotation
						JOINT RightToe_End
						{
							OFFSET 1.784700 -0.561700 9.474800
							CHANNELS 3 Xrotation Yrotation Zrotation
							End Site
							{
								OFFSET 0 0 0
							}
						}
					}
				}
			}
		}
	}
	JOINT Spine_virtual
	{
		OFFSET 0.000000 0.000000 0.000000
		CHANNELS 3 Xrotation Yrotation Zrotation
		JOINT Spine
		{
			OFFSET 0.072000 7.257294 -0.789700
			CHANNELS 3 Xrotation Yrotation Zrotation
			JOINT Spine1
			{
				OFFSET 0.000000 12.508769 -0.658067
				CHANNELS 3 Xrotation Yrotation Zrotation
				JOINT Spine1_split
				{
					OFFSET 0.000000 12.508769 -0.658067
					CHANNELS 3 Xrotation Yrotation Zrotation
					JOINT Spine2
					{
						OFFSET 0.000000 12.508769 -0.658067
						CHANNELS 3 Xrotation Yrotation Zrotation
						JOINT Neck_virtual
						{
							OFFSET 0.000000 0.000000 0.000000
							CHANNELS 3 Xrotation Yrotation Zrotation
							JOINT Neck
							{
								OFFSET 0.000000 14.033295 7.520400
								CHANNELS 3 Xrotation Yrotation Zrotation
								JOINT Head
								{
									OFFSET 0.000000 8.198502 5.703100
									CHANNELS 3 Xrotation Yrotation Zrotation
									JOINT HeadTop_End
									{
										OFFSET 0.000000 17.760803 13.332701
										CHANNELS 3 Xrotation Yrotation Zrotation
										End Site
										{
											OFFSET 0 0 0
										}
									}
								}
							}
						}
						JOINT LeftShoulder_virtual
						{
							OFFSET 0.000000 0.000000 0.000000
							CHANNELS 3 Xrotation Yrotation Zrotation
							JOINT LeftShoulder
							{
								OFFSET 6.292450 5.785301 -0.669000
								CHANNELS 3 Xrotation Yrotation Zrotation
								JOINT LeftShoulder_split
								{
									OFFSET 6.292450 5.785301 -0.669000
									CHANNELS 3 Xrotation Yrotation Zrotation
									JOINT LeftArm
									{
										OFFSET 13.907140 -6.093903 1.965100
										CHANNELS 3 Xrotation Yrotation Zrotation
										JOINT LeftForeArm
										{
											OFFSET 34.140198 0.000000 0.000000
											CHANNELS 3 Xrotation Yrotation Zrotation
											JOINT LeftHand
											{
												OFFSET 40.960209 0.000000 0.000000
												CHANNELS 3 Xrotation Yrotation Zrotation
												End Site
												{
													OFFSET 0 0 0
												}
											}
										}
									}
								}
							}
						}
						JOINT RightShoulder_virtual
						{
							OFFSET 0.000000 0.000000 0.000000
							CHANNELS 3 Xrotation Yrotation Zrotation
							JOINT RightShoulder
							{
								OFFSET -6.292450 5.785301 -0.669000
								CHANNELS 3 Xrotation Yrotation Zrotation
								JOINT RightShoulder_split
								{
									OFFSET -6.292450 5.785301 -0.669000
									CHANNELS 3 Xrotation Yrotation Zrotation
									JOINT RightArm
									{
										OFFSET -13.907140 -6.093903 1.965100
										CHANNELS 3 Xrotation Yrotation Zrotation
										JOINT RightForeArm
										{
											OFFSET -34.140198 0.000000 0.000000
											CHANNELS 3 Xrotation Yrotation Zrotation
											JOINT RightHand
											{
												OFFSET -40.960209 0.000000 0.000000
												CHANNELS 3 Xrotation Yrotation Zrotation
												End Site
												{
													OFFSET 0 0 0
												}
											}
										}
									}
								}
							}
						}
					}
				}
			}
		}
	}
}
MOTION
Frames: 4
Frame Time: 0.03333333
-82.068977 28.767349 1.440311 0.000000 0.000000 0.000000 -45.405790 8.965107 104.417637 -38.458312 11.390531 0.186368 65.954096 2.376859 -13.981488 -11.710350 -13.083353 -0.506573 -5.819208 -1.940385 4.199819 0.000000 0.000000 0.000000 -55.294008 4.979044 107.783616 -57.948903 -7.379324 -40.845300 111.625392 6.458428 1.448402 5.777027 6.796451 22.399086 6.606615 -0.187735 1.533328 0.000000 0.000000 0.000000 -47.407271 5.178973 99.288814 12.791291 -0.818835 -8.010490 16.895723 0.165040 -2.528628 0.226393 2.091036 -1.252942 0.000000 0.000000 0.000000 12.344883 0.919919 -2.139014 42.382666 8.392393 -11.999889 -7.386097 13.366320 -2.586442 0.000000 0.000000 0.000000 14.788729 1.909518 -2.573755 -0.047654 -3.659374 -13.207306 1.387235 -12.281591 -0.737373 -56.916888 -8.145854 -22.302255 46.809346 -13.199672 11.350250 0.000000 0.000000 0.000000 16.083668 1.802499 -3.133491 4.905206 18.625972 -11.155522 -10.224566 -6.768703 3.231644 -22.903981 -4.580161 16.354266 23.165606 48.672966 -15.143479 0.000000 0.000000 0.000000 
-86.965469 23.018356 2.666111 0.000000 0.000000 0.000000 -48.418105 -1.858419 111.308533 -32.188421 4.859141 -6.235030 63.064796 6.422401 -11.041007 -11.194747 -7.155203 -0.404730 -7.154814 -1.684262 3.262192 0.000000 0.000000 0.000000 -56.671364 -5.484417 113.292785 -57.223642 -3.596930 -43.876312 112.501617 2.842890 3.383926 3.451457 3.951431 21.693446 4.361367 -0.500538 2.635780 0.000000 0.000000 0.000000 -51.047676 -3.335757 104.791638 13.649475 -1.505220 -8.289988 16.858993 -0.296953 -1.455025 0.590338 2.814289 -0.678741 0.000000 0.000000 0.000000 12.004143 0.242402 -0.980416 39.248220 5.288980 -9.327207 -7.607254 5.846229 -2.536397 0.000000 0.000000 0.000000 14.436325 1.320375 -1.282187 -0.311861 -4.047881 -17.392711 -0.195571 -11.524977 -0.839895 -60.893739 -1.864989 -25.772590 48.154517 -15.686523 13.131168 0.000000 0.000000 0.000000 16.196790 1.151284 -2.036907 4.889905 19.140080 -10.915605 -9.717811 -6.637838 3.209136 -19.162538 -3.731836 15.123087 27.035659 46.168616 -19.647232 0.000000 0.000000 0.000000 
-92.235283 19.911469 3.110935 0.000000 0.000000 0.000000 -51.058625 -11.209290 114.884383 -27.953975 -1.178130 -9.051023 58.979537 10.296899 -8.227236 -5.228993 -0.660068 -2.419473 -7.098987 -1.241653 2.402413 0.000000 0.000000 0.000000 -57.195868 -13.982254 115.667765 -53.353224 -2.768708 -47.136218 108.538222 -0.646702 5.132281 1.189922 2.382948 22.242716 2.599709 -0.397431 2.501525 0.000000 0.000000 0.000000 -54.306622 -10.400280 107.697774 14.756636 -1.777563 -7.585290 15.757122 -0.348088 -0.032594 -0.622418 2.765970 0.797313 0.000000 0.000000 0.000000 10.722777 0.021233 0.378262 34.379354 1.973569 -6.393040 -10.686088 -2.684517 -2.401769 0.000000 0.000000 0.000000 12.917380 1.181318 0.330631 -0.578182 -4.051499 -20.494836 -1.542889 -10.481624 -2.248200 -63.990724 10.056575 -26.097301 51.204658 -20.826999 18.188410 0.000000 0.000000 0.000000 14.950739 0.862454 -0.670206 5.060095 19.548941 -10.957381 -10.189946 -6.804982 3.472258 -16.846062 1.363876 12.982128 25.127597 44.229693 -19.650673 0.000000 0.000000 0.000000 
-97.528320 19.244637 2.535801 0.000000 0.000000 0.000000 -54.368395 -18.268038 115.351062 -25.408032 -4.994765 -8.012183 54.587630 13.490421 -5.990923 6.254626 4.317083 -6.837452 -5.746612 -0.743655 1.687429 0.000000 0.000000 0.000000 -58.791789 -19.829149 115.319138 -47.353746 -4.770484 -49.050679 99.318443 -4.166723 6.492760 -0.561813 1.732202 23.584179 2.322155 0.056365 1.331032 0.000000 0.000000 0.000000 -57.733130 -15.937536 108.053142 16.244176 -1.678938 -5.699331 13.960709 -0.328090 1.533625 -1.434069 2.100400 1.839924 0.000000 0.000000 0.000000 8.991972 -0.040379 1.731137 28.431347 -1.024567 -3.722229 -15.656834 -10.568072 -2.906129 0.000000 0.000000 0.000000 10.789523 1.088306 2.047591 -0.786218 -4.240759 -21.927897 -2.365506 -9.410703 -4.168727 -67.381462 23.704182 -22.844379 56.829182 -26.606992 26.705140 0.000000 0.000000 0.000000 12.866803 0.640753 0.780436 5.350422 19.402517 -11.223984 -10.849447 -8.124011 4.339562 -16.591691 8.232217 10.878974 17.774270 41.433819 -15.253119 0.000000 0.000000 0.000000 
